<svg id="Capa_1" enable-background="new 0 0 511.598 511.598" height="512" viewBox="0 0 511.598 511.598" width="512" xmlns="http://www.w3.org/2000/svg"><g><g><path d="m504.098 271.055v-30.513c0-8.695-7.049-15.744-15.744-15.744h-21.42c-7.405 0-13.786-5.166-15.377-12.399-5.117-23.265-14.279-45.012-26.706-64.474-3.957-6.197-3.017-14.323 2.182-19.522l15.127-15.127c6.148-6.148 6.148-16.116 0-22.265l-21.576-21.576c-6.148-6.148-16.116-6.148-22.265 0l-15.09 15.09c-5.204 5.204-13.339 6.141-19.537 2.173-19.466-12.461-41.226-21.651-64.509-26.79-7.226-1.595-12.385-7.974-12.385-15.374v-21.291c0-8.695-7.049-15.744-15.744-15.744h-30.513c-8.695 0-15.744 7.049-15.744 15.744v21.293c0 7.4-5.159 13.779-12.385 15.374-23.283 5.139-45.042 14.329-64.509 26.79-6.198 3.968-14.333 3.031-19.537-2.173l-15.09-15.09c-6.148-6.148-16.117-6.148-22.265 0l-21.574 21.576c-6.148 6.148-6.148 16.116 0 22.265l15.127 15.127c5.199 5.199 6.14 13.325 2.182 19.522-12.427 19.461-21.589 41.208-26.706 64.473-1.591 7.232-7.972 12.399-15.377 12.399h-21.42c-8.695 0-15.744 7.049-15.744 15.744v30.513c0 8.695 7.049 15.744 15.744 15.744h21.496c7.396 0 13.772 5.154 15.372 12.374 5.145 23.224 14.321 44.93 26.754 64.353 3.968 6.199 3.032 14.334-2.172 19.538l-15.256 15.255c-6.148 6.148-6.148 16.117 0 22.265l21.576 21.576c6.148 6.148 16.117 6.148 22.265 0l15.292-15.292c5.2-5.2 13.326-6.139 19.524-2.181 19.418 12.399 41.111 21.547 64.318 26.669 7.227 1.595 12.388 7.974 12.388 15.375v21.623c0 8.695 7.049 15.744 15.744 15.744h30.513c8.695 0 15.744-7.049 15.744-15.744v-21.623c0-7.401 5.161-13.779 12.388-15.375 23.207-5.123 44.9-14.27 64.318-26.669 6.198-3.957 14.324-3.018 19.524 2.181l15.292 15.292c6.148 6.148 16.117 6.148 22.265 0l21.576-21.576c6.148-6.148 6.148-16.117 0-22.265l-15.255-15.255c-5.204-5.204-6.14-13.34-2.172-19.538 12.432-19.423 21.608-41.129 26.754-64.353 1.6-7.221 7.976-12.374 15.372-12.374h21.496c8.69-.001 15.739-7.05 15.739-15.745z" fill="#9c9c9c"/></g><g><path d="m504.099 240.544v30.51c0 8.7-7.05 15.75-15.74 15.75h-21.5c-7.4 0-13.77 5.15-15.37 12.37-5.15 23.22-14.32 44.93-26.76 64.35-3.96 6.2-3.03 14.34 2.18 19.54l15.25 15.26c6.15 6.14 6.15 16.11 0 22.26l-21.57 21.58c-6.15 6.15-16.12 6.15-22.27 0l-1.62-1.62 19.96-19.96c6.15-6.15 6.15-16.12 0-22.26l-15.25-15.26c-5.21-5.2-6.14-13.34-2.18-19.54 12.44-19.42 20.5-41.4 26.76-64.35 11.19-41.06.07-86.77.07-86.77-5.12-23.27-14.28-45.02-26.71-64.48-3.95-6.19-3.01-14.32 2.19-19.52l15.12-15.13c6.15-6.14 6.15-16.11 0-22.26l-19.96-19.96 1.62-1.62c6.15-6.14 16.12-6.14 22.27 0l21.57 21.58c6.15 6.15 6.15 16.12 0 22.26l-15.12 15.13c-5.2 5.2-6.14 13.33-2.19 19.52 12.43 19.46 21.59 41.21 26.71 64.48 1.59 7.23 7.97 12.4 15.38 12.4h21.42c8.69 0 15.74 7.04 15.74 15.74z" fill="#838383"/></g><g><circle cx="255.799" cy="255.634" fill="#f9f7f8" r="142.364"/></g><g><path d="m398.159 255.634c0 78.63-63.73 142.36-142.36 142.36-18.75 0-36.66-3.62-53.05-10.21 10.2 2.32 20.82 3.55 31.72 3.55 78.62 0 142.36-63.74 142.36-142.37 0-59.87-36.96-111.1-89.3-132.14 63.35 14.42 110.63 71.09 110.63 138.81z" fill="#efedef"/></g><g><path d="m270.948 175.746 15.661 31.732c2.461 4.986 7.217 8.442 12.72 9.241l35.018 5.088c13.856 2.013 19.389 19.041 9.363 28.815l-25.339 24.7c-3.982 3.881-5.798 9.473-4.858 14.953l5.982 34.877c2.367 13.8-12.118 24.324-24.511 17.809l-31.321-16.466c-4.921-2.587-10.801-2.587-15.722 0l-31.321 16.466c-12.393 6.516-26.878-4.008-24.511-17.809l5.982-34.877c.94-5.48-.877-11.072-4.858-14.953l-25.339-24.7c-10.026-9.773-4.494-26.801 9.363-28.815l35.018-5.088c5.502-.8 10.259-4.255 12.72-9.241l15.661-31.732c6.191-12.556 24.095-12.556 30.292 0z" fill="#fe9738"/></g><g><path d="m318.369 275.324c-3.98 3.88-5.8 9.47-4.86 14.95l5.98 34.88c2.37 13.8-12.11 24.32-24.51 17.81l-3.94-2.07c5.1-3.99 8.2-10.55 6.93-17.96l-6.65-38.79c-1.05-6.09.97-12.31 5.4-16.63l28.18-27.47c5.48-5.34 6.78-12.62 4.86-18.91l4.59.67c13.85 2.02 19.39 19.05 9.36 28.82z" fill="#fe860a"/></g><g><path d="m385.333 196.011c-3.848 1.533-5.725 5.895-4.192 9.743 6.318 15.862 9.522 32.645 9.522 49.879 0 74.364-60.5 134.864-134.864 134.864s-134.864-60.5-134.864-134.864 60.5-134.864 134.864-134.864c43.154 0 84.037 20.907 109.36 55.925 2.428 3.356 7.115 4.109 10.473 1.683 3.356-2.428 4.11-7.116 1.682-10.473-28.136-38.907-73.562-62.135-121.515-62.135-82.635 0-149.864 67.229-149.864 149.864s67.229 149.864 149.864 149.864 149.864-67.229 149.864-149.864c0-19.145-3.562-37.793-10.586-55.43-1.534-3.848-5.897-5.725-9.744-4.192z"/><path d="m348.944 255.993c6.697-6.529 9.063-16.11 6.172-25.006s-10.436-15.257-19.692-16.602l-35.018-5.088c-3.061-.445-5.705-2.366-7.073-5.139l-15.661-31.732c-4.14-8.387-12.521-13.598-21.875-13.598s-17.735 5.21-21.875 13.598l-15.661 31.732c-1.368 2.772-4.012 4.693-7.073 5.138l-35.018 5.088c-9.256 1.345-16.801 7.706-19.692 16.601-2.89 8.896-.525 18.478 6.173 25.006l25.339 24.7c2.214 2.158 3.224 5.267 2.701 8.314l-.295 1.719c-.7 4.083 2.042 7.96 6.124 8.66 4.087.701 7.959-2.042 8.66-6.124l.295-1.719c1.357-7.915-1.265-15.986-7.016-21.591l-25.339-24.7c-2.619-2.552-3.507-6.152-2.377-9.629s3.964-5.867 7.583-6.393l35.018-5.088c7.947-1.155 14.813-6.144 18.367-13.344l15.661-31.732c1.618-3.279 4.767-5.236 8.423-5.236s6.805 1.958 8.423 5.236l15.661 31.731c3.553 7.201 10.419 12.189 18.366 13.344l35.019 5.088c3.618.526 6.453 2.916 7.583 6.393s.242 7.077-2.376 9.629l-25.339 24.7c-5.75 5.605-8.373 13.676-7.016 21.591l5.982 34.876c.618 3.604-.779 7.039-3.737 9.188s-6.656 2.417-9.892.715l-31.321-16.466c-7.107-3.736-15.595-3.736-22.703 0l-31.321 16.466c-4.45 2.341-8.166.444-9.556-.481-2.917-1.939-4.482-5.14-4.185-8.561.359-4.126-2.696-7.763-6.822-8.121-4.13-.367-7.763 2.695-8.121 6.822-.768 8.838 3.379 17.402 10.823 22.352 4.123 2.741 8.77 4.124 13.446 4.124 3.871 0 7.763-.948 11.395-2.857l31.321-16.466c2.736-1.439 6.004-1.44 8.742 0l31.321 16.466c8.279 4.352 18.123 3.642 25.689-1.857 7.567-5.498 11.286-14.64 9.705-23.858l-5.982-34.876c-.523-3.047.487-6.156 2.701-8.314z"/><path d="m488.354 217.299h-21.419c-3.898 0-7.209-2.677-8.052-6.51-5.232-23.791-14.555-46.299-27.71-66.899-2.037-3.189-1.547-7.471 1.164-10.182l15.127-15.127c9.063-9.062 9.063-23.808 0-32.871l-21.576-21.576c-4.39-4.39-10.227-6.808-16.436-6.808-6.208 0-12.045 2.418-16.436 6.808l-15.09 15.09c-2.715 2.713-7 3.202-10.19 1.16-20.604-13.189-43.125-22.541-66.936-27.797-3.828-.845-6.502-4.155-6.502-8.05v-21.293c.001-12.817-10.426-23.244-23.243-23.244h-30.513c-12.816 0-23.244 10.427-23.244 23.244v21.292c0 3.895-2.674 7.205-6.502 8.05-23.811 5.256-46.331 14.608-66.935 27.797-3.191 2.042-7.477 1.554-10.191-1.16l-15.09-15.09c-4.39-4.39-10.227-6.808-16.436-6.808-6.208 0-12.045 2.418-16.436 6.808l-21.574 21.576c-4.39 4.39-6.808 10.227-6.808 16.436s2.418 12.046 6.808 16.436l15.126 15.127c2.711 2.711 3.201 6.994 1.165 10.182-13.154 20.6-22.477 43.108-27.71 66.899-.843 3.833-4.154 6.51-8.052 6.51h-21.42c-12.816 0-23.243 10.427-23.243 23.243v30.513c0 12.816 10.427 23.244 23.243 23.244h21.496c3.892 0 7.202 2.671 8.049 6.496 5.263 23.753 14.602 46.219 27.759 66.775 2.043 3.191 1.556 7.477-1.159 10.191l-15.255 15.255c-4.39 4.39-6.808 10.227-6.808 16.436s2.418 12.046 6.808 16.436l21.576 21.577c9.063 9.062 23.809 9.062 32.871 0l15.292-15.292c2.711-2.71 6.994-3.2 10.184-1.163 20.551 13.123 43.005 22.433 66.738 27.672 3.83.845 6.504 4.156 6.504 8.051v21.623c0 12.816 10.427 23.244 23.244 23.244h30.513c12.816 0 23.244-10.427 23.244-23.244v-21.623c0-3.895 2.675-7.206 6.504-8.051 23.733-5.239 46.187-14.55 66.737-27.672 3.19-2.037 7.473-1.548 10.185 1.163l15.292 15.292c9.063 9.062 23.809 9.062 32.872 0l21.576-21.576c9.063-9.062 9.063-23.808 0-32.871l-15.255-15.256c-2.714-2.714-3.202-7-1.159-10.191 13.157-20.556 22.497-43.022 27.759-66.775.848-3.825 4.158-6.496 8.049-6.496h21.496c12.816 0 23.244-10.427 23.244-23.244v-30.513c-.001-12.817-10.429-23.244-23.245-23.244zm8.244 53.756c0 4.545-3.698 8.244-8.244 8.244h-21.496c-10.981 0-20.313 7.505-22.694 18.251-4.881 22.028-13.543 42.865-25.749 61.933-5.812 9.08-4.472 21.228 3.186 28.885l15.255 15.255c3.214 3.214 3.214 8.444 0 11.658l-21.576 21.576c-3.214 3.215-8.444 3.215-11.659 0l-15.292-15.292c-7.648-7.649-19.787-8.995-28.864-3.199-19.063 12.173-39.888 20.808-61.898 25.667-10.758 2.375-18.271 11.708-18.271 22.698v21.623c0 4.545-3.698 8.244-8.244 8.244h-30.513c-4.545 0-8.244-3.698-8.244-8.244v-21.623c0-10.99-7.513-20.324-18.271-22.698-22.009-4.859-42.835-13.494-61.898-25.667-3.775-2.411-8.08-3.585-12.371-3.585-6.025 0-12.025 2.317-16.492 6.785l-15.292 15.292c-3.214 3.214-8.443 3.214-11.658 0l-21.573-21.577c-1.557-1.557-2.415-3.626-2.415-5.829 0-2.202.857-4.272 2.415-5.829l15.255-15.255c7.658-7.658 8.998-19.805 3.186-28.885-12.205-19.067-20.868-39.904-25.749-61.932-2.38-10.747-11.712-18.252-22.694-18.252h-21.495c-4.545 0-8.243-3.698-8.243-8.244v-30.513c0-4.545 3.698-8.244 8.243-8.244h21.42c10.999 0 20.334-7.521 22.702-18.288 4.852-22.063 13.5-42.939 25.702-62.048 5.794-9.075 4.449-21.213-3.201-28.862l-15.126-15.126c-1.557-1.557-2.415-3.626-2.415-5.829 0-2.202.857-4.272 2.415-5.829l21.576-21.576c1.557-1.557 3.627-2.415 5.829-2.415s4.272.857 5.829 2.415l15.09 15.09c7.658 7.658 19.805 8.997 28.884 3.187 19.113-12.234 40-20.909 62.082-25.783 10.756-2.375 18.269-11.708 18.269-22.698v-21.292c0-4.545 3.698-8.244 8.244-8.244h30.513c4.545 0 8.244 3.698 8.244 8.244v21.292c0 10.99 7.512 20.323 18.269 22.698 22.082 4.874 42.969 13.549 62.083 25.783 9.079 5.811 21.226 4.471 28.883-3.187l15.09-15.09c1.557-1.557 3.627-2.415 5.829-2.415s4.272.857 5.829 2.415l21.576 21.576c3.214 3.214 3.214 8.444 0 11.658l-15.127 15.127c-7.649 7.649-8.995 19.787-3.2 28.862 12.203 19.109 20.85 39.985 25.702 62.048 2.368 10.768 11.703 18.288 22.702 18.288h21.419c4.545 0 8.244 3.698 8.244 8.244v30.512z"/></g></g></svg>